<svg xmlns="http://www.w3.org/2000/svg" width="30" height="30" viewBox="0 0 30 30">
  <g id="Group_1232" data-name="Group 1232" transform="translate(-71 -13)">
    <rect id="Rectangle_115" data-name="Rectangle 115" width="30" height="30" transform="translate(71 13)" fill="#fff" opacity="0"/>
    <g id="_007---Hyderabad-Charminar" data-name="007---Hyderabad-Charminar" transform="translate(78.008 19.918)">
      <path id="Shape" d="M15.314,1.4A3.02,3.02,0,0,1,14.631.383a.534.534,0,0,0-.956,0,4.5,4.5,0,0,1-.283.534c-.35.545-1.108.916-1.108,1.939a1.458,1.458,0,0,0,.369.972.534.534,0,0,0-.369.5v.534a.534.534,0,0,0,.534.534V6.469H3.2V5.4a.534.534,0,0,0,.534-.534V4.333a.534.534,0,0,0-.369-.51,1.458,1.458,0,0,0,.369-.967A1.978,1.978,0,0,0,3.031,1.4,3.02,3.02,0,0,1,2.347.378a.534.534,0,0,0-.956,0,4.5,4.5,0,0,1-.283.534C.758,1.462,0,1.833,0,2.856a1.458,1.458,0,0,0,.369.972.534.534,0,0,0-.369.5v.534A.534.534,0,0,0,.534,5.4V7.537H.267A.267.267,0,0,0,0,7.8v8.011a.267.267,0,0,0,.267.267H15.755a.267.267,0,0,0,.267-.267V7.8a.267.267,0,0,0-.267-.267h-.267V5.4a.534.534,0,0,0,.534-.534V4.333a.534.534,0,0,0-.369-.51,1.458,1.458,0,0,0,.369-.967A1.978,1.978,0,0,0,15.314,1.4Zm-1.162-.8a3.541,3.541,0,0,0,.774,1.162,1.485,1.485,0,0,1,.561,1.1.943.943,0,0,1-.943.943H13.76a.943.943,0,0,1-.943-.943c0-.927.873-1.057,1.335-2.262Zm1.335,7.477v.534h-2.67V8.071Zm0,5.556h-2.67v-1.69h2.67ZM5.608,8.071v.534H3.738V8.071Zm4.273,0v.534H6.142V8.071Zm2.4,0v.534H10.414V8.071Zm3.2,3.471h-2.67v-2.4h2.67Zm-12.283,0H.534v-2.4H3.2Zm-2.67.395H3.2v1.69H.534Zm3.2-2.8H5.608v2.4H3.738Zm2.4,0H9.88v.8H6.142Zm4.273,0h1.869v2.4H10.414ZM12.818,7v.534H3.2V7ZM.534,4.867V4.333H3.2v.534ZM1.869.594a3.541,3.541,0,0,0,.774,1.162,1.485,1.485,0,0,1,.561,1.1.943.943,0,0,1-.943.943H1.477a.943.943,0,0,1-.943-.943c0-.927.873-1.057,1.335-2.262ZM1.068,5.4h1.6V7.537h-1.6ZM.534,8.071H3.2v.534H.534Zm0,6.045H3.2v1.432H.534Zm3.2-2.179H5.608v3.611H3.738Zm2.4-1.571H9.88v5.182H9.346V13.035a2.175,2.175,0,0,0-.98-1.784.534.534,0,0,0-.71,0,2.175,2.175,0,0,0-.98,1.784v2.513H6.142ZM7.21,15.548V13.035c0-.465.12-.8.8-1.383.678.6.8.919.8,1.383v2.513Zm3.2-3.611h1.869v3.611H10.414Zm2.4,3.611V14.116h2.67v1.432Zm2.136-8.011h-1.6V5.4h1.6Zm-2.136-2.67V4.333h2.67v.534Z" fill="#555d67"/>
    </g>
  </g>
</svg>
