<svg xmlns="http://www.w3.org/2000/svg" width="210.221" height="83.915" viewBox="0 0 210.221 83.915"><defs><style>.a{fill:#f2f2f2;}.b{fill:#2f2e41;}.c,.i{fill:#f6561b;}.d{fill:none;stroke:#3f3d56;stroke-miterlimit:10;}.e{fill:#3f3d56;}.f{opacity:0.1;}.g{fill:#57b894;}.h{fill:#fff;}.i{opacity:0.3;}</style></defs><g transform="translate(0.394 0.5)"><ellipse class="a" cx="102.748" cy="6.802" rx="102.748" ry="6.802" transform="translate(2.56 69.811)"/><path class="b" d="M464.589,324.894c-16.74,0-28.76,10.74-28.76,35.8,0,28.4,12.019,35.92,28.76,35.92s29.476-8.234,29.476-35.92C494.065,331.1,481.329,324.894,464.589,324.894Zm.11,62.293c-11.595,0-17.652-6.8-17.652-26.474,0-17.357,6.306-26.511,17.9-26.511s17.9,6.012,17.9,26.511c0,19.176-6.554,26.474-18.148,26.474Z" transform="translate(-363.219 -322.746)"/><path class="c" d="M169.769,388.455h-6.921V368.073a4.082,4.082,0,0,0-4.082-4.082h-1.622a4.082,4.082,0,0,0-4.082,4.082v20.382H133.539a2.33,2.33,0,0,1-2.06-3.419l20.663-39.108a4.082,4.082,0,0,0-1.866-5.6l-1.22-.576a4.082,4.082,0,0,0-5.343,1.767l-25.2,47.144a5.535,5.535,0,0,0-.654,2.609h0a5.535,5.535,0,0,0,5.535,5.535h29.669V409.7a4.893,4.893,0,0,0,4.893,4.893h0a4.893,4.893,0,0,0,4.893-4.893V396.809h6.921a4.177,4.177,0,0,0,4.177-4.177h0a4.177,4.177,0,0,0-4.177-4.177Z" transform="translate(-107.183 -334.396)"/><path class="c" d="M827.766,388.455h-6.921V368.073a4.082,4.082,0,0,0-4.081-4.082h-1.622a4.082,4.082,0,0,0-4.082,4.082v20.382H791.536a2.33,2.33,0,0,1-2.06-3.419l20.663-39.108a4.082,4.082,0,0,0-1.866-5.6l-1.22-.576a4.082,4.082,0,0,0-5.343,1.767l-25.2,47.144a5.535,5.535,0,0,0-.654,2.609h0a5.535,5.535,0,0,0,5.535,5.535h29.669V409.7a4.893,4.893,0,0,0,4.893,4.893h0a4.893,4.893,0,0,0,4.893-4.893V396.809h6.921a4.177,4.177,0,0,0,4.177-4.177h0a4.177,4.177,0,0,0-4.177-4.177Z" transform="translate(-637.014 -334.396)"/><path class="d" d="M179.572,376.2h-6.921V355.82a4.082,4.082,0,0,0-4.082-4.082h-1.622a4.082,4.082,0,0,0-4.082,4.082V376.2H143.342a2.33,2.33,0,0,1-2.06-3.419l20.663-39.108a4.082,4.082,0,0,0-1.866-5.6l-1.22-.576a4.082,4.082,0,0,0-5.343,1.767l-25.2,47.144a5.535,5.535,0,0,0-.654,2.609h0a5.535,5.535,0,0,0,5.535,5.535h29.669v12.888a4.893,4.893,0,0,0,4.893,4.893h0a4.893,4.893,0,0,0,4.893-4.893V384.556h6.921a4.177,4.177,0,0,0,4.177-4.177h0a4.177,4.177,0,0,0-4.177-4.177Z" transform="translate(-115.077 -324.53)"/><path class="d" d="M846.145,376.2h-6.922V355.82a4.082,4.082,0,0,0-4.082-4.082H833.52a4.082,4.082,0,0,0-4.082,4.082V376.2H809.915a2.33,2.33,0,0,1-2.06-3.419l20.663-39.108a4.082,4.082,0,0,0-1.866-5.6l-1.22-.576a4.082,4.082,0,0,0-5.343,1.767l-25.2,47.144a5.536,5.536,0,0,0-.654,2.609h0a5.535,5.535,0,0,0,5.535,5.535h29.669v12.888a4.893,4.893,0,0,0,4.893,4.893h0a4.893,4.893,0,0,0,4.893-4.893V384.556h6.921a4.177,4.177,0,0,0,4.177-4.177h0a4.177,4.177,0,0,0-4.177-4.177Z" transform="translate(-651.813 -324.53)"/><path class="d" d="M484.194,313.866c-16.74,0-28.76,10.74-28.76,35.8,0,28.4,12.019,35.92,28.76,35.92s29.476-8.234,29.476-35.92C513.67,320.072,500.934,313.866,484.194,313.866Zm.11,62.293c-11.595,0-17.652-6.8-17.652-26.474,0-17.357,6.306-26.511,17.9-26.511s17.9,6.012,17.9,26.511c0,19.176-6.553,26.474-18.148,26.474Z" transform="translate(-379.005 -313.866)"/><path class="e" d="M595.205,331.6a2.617,2.617,0,0,1-1.527,1.468,13.491,13.491,0,0,1-5.212,1.023,8.8,8.8,0,0,1-1.392-.026,4,4,0,0,1-2.386-1.1.327.327,0,0,1,.008-.554,9.163,9.163,0,0,1,4.21-2.185c1.234-.356,3.386-1.278,4.731-1.154C594.942,329.193,595.4,330.81,595.205,331.6Z" transform="translate(-482.963 -326.101)"/><path class="f" d="M595.205,331.6a2.617,2.617,0,0,1-1.527,1.468,13.491,13.491,0,0,1-5.212,1.023,8.8,8.8,0,0,1-1.392-.026,4,4,0,0,1-2.386-1.1.327.327,0,0,1,.008-.554,9.163,9.163,0,0,1,4.21-2.185c1.234-.356,3.386-1.278,4.731-1.154C594.942,329.193,595.4,330.81,595.205,331.6Z" transform="translate(-482.963 -326.101)"/><path class="g" d="M1058.881,544.924a4.054,4.054,0,1,0,.54-7.775l.1,2.087-.987-1.788a4.038,4.038,0,0,0-2.081,2.283,3.97,3.97,0,0,0-.233,1.1A4.053,4.053,0,0,0,1058.881,544.924Z" transform="translate(-862.761 -493.586)"/><path class="d" d="M1091.843,554.721c-.349-1.775,1.161-3.348,2.653-4.37s3.234-2.027,3.743-3.763c.731-2.494-1.447-4.778-3.143-6.748a24.408,24.408,0,0,1-3.219-4.783,6.585,6.585,0,0,1-.77-2.175,7.508,7.508,0,0,1,.579-3.26q1.788-5.269,3.823-10.45" transform="translate(-890.838 -479.182)"/><path class="d" d="M1059.731,542.166a4.054,4.054,0,1,0,.54-7.775l.1,2.087-.987-1.788a4.038,4.038,0,0,0-2.081,2.283,3.973,3.973,0,0,0-.233,1.1A4.053,4.053,0,0,0,1059.731,542.166Z" transform="translate(-863.446 -491.365)"/><path class="g" d="M1091.444,504.434a4.049,4.049,0,0,1,2.918-2.571l.334,1.984.619-2.083a4.053,4.053,0,1,1-3.87,2.67Z" transform="translate(-890.935 -465.164)"/><path class="d" d="M1092.584,500.756a4.049,4.049,0,0,1,2.918-2.571l.334,1.984.619-2.083a4.053,4.053,0,1,1-3.87,2.67Z" transform="translate(-891.854 -462.203)"/><path class="g" d="M1096.992,592.974a4.053,4.053,0,0,0,3.588-7.211l-.475,1.6-.337-2.007-.01,0a4.054,4.054,0,1,0-2.765,7.621Z" transform="translate(-893.447 -532.275)"/><path class="d" d="M1097.992,589.249a4.053,4.053,0,0,0,3.588-7.211l-.476,1.6-.337-2.007-.01,0a4.054,4.054,0,1,0-2.765,7.621Z" transform="translate(-894.253 -529.276)"/><path class="g" d="M1086.123,640.4a4.052,4.052,0,1,0,.781-3.174l1.806,2.718-2.468-1.443A4.016,4.016,0,0,0,1086.123,640.4Z" transform="translate(-886.797 -572.97)"/><path class="d" d="M1086.973,637.644a4.052,4.052,0,1,0,.781-3.174l1.806,2.719-2.468-1.443A4.016,4.016,0,0,0,1086.973,637.644Z" transform="translate(-887.481 -570.75)"/><path class="g" d="M64.809,606.774a2.664,2.664,0,1,0,.355-5.108l.067,1.371-.649-1.175a2.653,2.653,0,0,0-1.367,1.5,2.611,2.611,0,0,0-.153.721A2.663,2.663,0,0,0,64.809,606.774Z" transform="translate(-63.055 -545.56)"/><path class="d" d="M86.463,613.21c-.229-1.166.763-2.2,1.743-2.871s2.125-1.332,2.459-2.472c.481-1.639-.951-3.139-2.065-4.433a16.033,16.033,0,0,1-2.115-3.143,4.326,4.326,0,0,1-.506-1.429,4.932,4.932,0,0,1,.381-2.142q1.175-3.462,2.512-6.866" transform="translate(-81.5 -536.096)"/><path class="d" d="M65.372,604.962a2.664,2.664,0,1,0,.355-5.108l.067,1.371-.649-1.175a2.653,2.653,0,0,0-1.367,1.5,2.612,2.612,0,0,0-.153.72A2.663,2.663,0,0,0,65.372,604.962Z" transform="translate(-63.508 -544.101)"/><path class="g" d="M86.205,580.17a2.661,2.661,0,0,1,1.917-1.689l.219,1.3.407-1.369a2.663,2.663,0,1,1-2.543,1.754Z" transform="translate(-81.567 -526.886)"/><path class="d" d="M86.957,577.754a2.66,2.66,0,0,1,1.917-1.689l.219,1.3L89.5,576a2.663,2.663,0,1,1-2.543,1.754Z" transform="translate(-82.172 -524.941)"/><path class="g" d="M89.853,638.343A2.663,2.663,0,0,0,92.21,633.6l-.312,1.052-.222-1.319-.007,0a2.663,2.663,0,0,0-1.816,5.007Z" transform="translate(-83.219 -570.979)"/><path class="d" d="M90.5,635.9a2.663,2.663,0,0,0,2.357-4.738l-.312,1.052-.222-1.319-.007,0A2.663,2.663,0,1,0,90.5,635.9Z" transform="translate(-83.743 -569.009)"/><path class="g" d="M82.707,669.5a2.662,2.662,0,1,0,.513-2.086l1.187,1.786-1.621-.948a2.638,2.638,0,0,0-.078,1.248Z" transform="translate(-78.846 -597.717)"/><path class="d" d="M83.27,667.692a2.662,2.662,0,1,0,.513-2.086l1.187,1.786-1.621-.948A2.639,2.639,0,0,0,83.27,667.692Z" transform="translate(-79.299 -596.258)"/><ellipse class="b" cx="3.311" cy="4.285" rx="3.311" ry="4.285" transform="translate(90.369 27.491)"/><ellipse class="b" cx="3.311" cy="4.285" rx="3.311" ry="4.285" transform="translate(108.386 27.588)"/><path class="b" d="M573.577,528.006c0,1.936-2.7,3.506-6.038,3.506s-6.038-1.57-6.038-3.506c0-1.677,2.028-3.079,4.737-3.422a9.753,9.753,0,0,1,1.3-.084,9.877,9.877,0,0,1,2.168.234C571.97,525.238,573.577,526.514,573.577,528.006Z" transform="translate(-464.411 -483.472)"/><ellipse class="d" cx="3.311" cy="4.285" rx="3.311" ry="4.285" transform="translate(91.148 26.517)"/><ellipse class="d" cx="3.311" cy="4.285" rx="3.311" ry="4.285" transform="translate(109.165 26.614)"/><ellipse class="d" cx="6.038" cy="3.506" rx="6.038" ry="3.506" transform="translate(97.868 40.054)"/><path class="h" d="M588.7,524.623a.962.962,0,0,1-.257.661.845.845,0,0,1-.619.274h-1.948a.909.909,0,0,1-.876-.935.955.955,0,0,1,.16-.534,9.141,9.141,0,0,1,1.3-.089,9.286,9.286,0,0,1,2.168.249A.987.987,0,0,1,588.7,524.623Z" transform="translate(-483.332 -483.069)"/><circle class="h" cx="0.974" cy="0.974" r="0.974" transform="translate(93.485 28.659)"/><circle class="h" cx="0.974" cy="0.974" r="0.974" transform="translate(111.6 28.659)"/><circle class="i" cx="0.974" cy="0.974" r="0.974" transform="translate(112.574 37.814)"/><circle class="i" cx="0.974" cy="0.974" r="0.974" transform="translate(88.81 37.814)"/></g></svg>