<svg xmlns="http://www.w3.org/2000/svg" width="30" height="30" viewBox="0 0 30 30">
  <g id="Group_1232" data-name="Group 1232" transform="translate(-70 -13)">
    <rect id="Rectangle_115" data-name="Rectangle 115" width="30" height="30" transform="translate(70 13)" fill="#fff" opacity="0"/>
    <g id="golden-temple" transform="translate(77.461 21.263)">
      <path id="Path_869" data-name="Path 869" d="M14.71,11.888v-3.1h.516V8.27H14.71V7.236h-.516V5.169h.516V4.652h-.362A1.257,1.257,0,0,0,13.889,3.1a1.224,1.224,0,0,1-.415-.471l-.055-.11V1.809H12.9v.714l-.055.11a1.227,1.227,0,0,1-.415.471,1.257,1.257,0,0,0-.459,1.547h-.362v.517h.516V7.236h-.258v-.3a.771.771,0,0,0-.227-.548L11.1,5.837l-.516.517-.2-.2.033-.065a1.61,1.61,0,0,0-.929-2.246A4.671,4.671,0,0,1,8.536,3.4a.771.771,0,0,0-.278-1.285V1.292h.516V.775H8.258V0H7.742V.775H7.226v.517h.516v.823A.771.771,0,0,0,7.463,3.4a4.664,4.664,0,0,1-.946.441,1.61,1.61,0,0,0-.929,2.246l.033.065-.2.2L4.9,5.837l-.547.548a.77.77,0,0,0-.227.548v.3H3.871V5.169h.516V4.652H4.025A1.257,1.257,0,0,0,3.567,3.1a1.224,1.224,0,0,1-.415-.471L3.1,2.523V1.809H2.581v.714l-.055.11A1.227,1.227,0,0,1,2.11,3.1a1.257,1.257,0,0,0-.459,1.547H1.29v.517h.516V7.236H1.29V8.27H.774v.517H1.29v3.1H0v4.135H16V11.888Zm-.516,0H11.613v-3.1h2.581Zm-6.254-3.1L6.907,9.3a1.285,1.285,0,0,0-.713,1.156v1.429H4.9v-3.1ZM6.72,10.338a.769.769,0,0,1,.418-.571L8,9.334l.862.432a.769.769,0,0,1,.418.571Zm-.01.517h.516v1.034H6.71Zm1.032,0h.516v1.034H7.742Zm1.032,0H9.29v1.034H8.774ZM9.093,9.3,8.061,8.787H11.1v3.1H9.806V10.46A1.285,1.285,0,0,0,9.093,9.3ZM12.466,4.49a.746.746,0,0,1,.253-.955,1.751,1.751,0,0,0,.442-.43,1.743,1.743,0,0,0,.442.43.747.747,0,0,1,.253.955l-.081.162H12.547Zm.179.679h1.032V7.236H12.645ZM10.914,6.751l.182-.183.182.183a.257.257,0,0,1,.076.183v.3h-.516v-.3A.257.257,0,0,1,10.914,6.751ZM5.935,6.568l.182.183a.257.257,0,0,1,.076.183v.3H5.677v-.3a.257.257,0,0,1,.076-.183Zm.774.366a.257.257,0,0,1,.076-.183l.182-.183.182.183a.257.257,0,0,1,.076.183v.3H6.71ZM8,4.1a1.942,1.942,0,0,0,.357.5,1.419,1.419,0,0,1,.418,1.01V6.1l-.258.258L8,5.837l-.516.517L7.226,6.1V5.609A1.419,1.419,0,0,1,7.643,4.6,1.946,1.946,0,0,0,8,4.1ZM7.742,6.934a.257.257,0,0,1,.076-.183L8,6.568l.182.183a.257.257,0,0,1,.076.183v.3H7.742Zm1.032,0a.257.257,0,0,1,.076-.183l.182-.183.182.183a.257.257,0,0,1,.076.183v.3H8.774Zm1.032,0a.257.257,0,0,1,.076-.183l.182-.183.182.183a.257.257,0,0,1,.076.183v.3H9.806Zm.258-1.567a1.1,1.1,0,0,1-.115.488l-.1.194-.3.3L9.29,6.1V5.609a1.934,1.934,0,0,0-.569-1.375,1.412,1.412,0,0,1-.2-.246,5.184,5.184,0,0,0,.793.344,1.09,1.09,0,0,1,.746,1.036ZM8,2.584a.258.258,0,1,1-.258.258A.259.259,0,0,1,8,2.584ZM6.681,4.331a5.184,5.184,0,0,0,.793-.344,1.426,1.426,0,0,1-.2.246A1.934,1.934,0,0,0,6.71,5.609V6.1l-.258.258-.3-.3-.1-.195a1.092,1.092,0,0,1,.631-1.524Zm-2.036,2.6a.257.257,0,0,1,.076-.183L4.9,6.568l.182.183a.257.257,0,0,1,.076.183v.3H4.645ZM2.143,4.49A.746.746,0,0,1,2.4,3.535a1.751,1.751,0,0,0,.442-.43,1.743,1.743,0,0,0,.442.43.747.747,0,0,1,.253.955l-.081.162H2.224Zm.179.679H3.355V7.236H2.322ZM1.806,7.753H14.193V8.27H1.806Zm0,1.034H4.387v3.1H1.806Zm13.677,3.618v2.068H11.871v-.347a1.285,1.285,0,0,0-.378-.914l-.654-.656-.654.655a1.286,1.286,0,0,0-.378.914v.347H9.29V13.439H6.71v1.034H6.193v-.347a1.285,1.285,0,0,0-.378-.914l-.654-.656-.654.655a1.286,1.286,0,0,0-.378.914v.347H.516V12.405ZM2.064,14.989v.517H1.548v-.517Zm.516,0H3.1v.517H2.581Zm1.032,0h.516v.517H3.613Zm1.032-.517H5.677v1.034H4.645Zm.021-.517a.779.779,0,0,1,.206-.378l.289-.29.289.29a.781.781,0,0,1,.206.378Zm1.528,1.034H6.71v.517H6.193Zm2.581-.517H7.226v-.517H8.774Zm-1.548.517h.516v.517H7.226Zm1.032,0h.516v.517H8.258Zm1.032,0h.516v.517H9.29Zm1.032-.517h1.032v1.034H10.322Zm.021-.517a.779.779,0,0,1,.206-.378l.289-.29.289.29a.781.781,0,0,1,.206.378Zm1.528,1.034h.516v.517h-.516Zm1.032,0h.516v.517H12.9Zm1.032,0h.516v.517h-.516Zm-13.419,0h.516v.517H.516Zm14.452.517v-.517h.516v.517Zm0,0" transform="translate(0.54 -1.263)" fill="#0f0f0f"/>
      <path id="Path_870" data-name="Path 870" d="M72,296v1.381h1.575V296Zm1.05.92h-.525v-.46h.525Zm0,0" transform="translate(-69.234 -287.501)" fill="#0f0f0f"/>
      <path id="Path_871" data-name="Path 871" d="M377.575,297.381V296H376v1.381Zm-1.05-.92h.525v.46h-.525Zm0,0" transform="translate(-363.262 -287.501)" fill="#0f0f0f"/>
    </g>
  </g>
</svg>
