<svg xmlns="http://www.w3.org/2000/svg" width="30" height="30" viewBox="0 0 30 30">
  <g id="Group_1232" data-name="Group 1232" transform="translate(-71 -13)">
    <rect id="Rectangle_115" data-name="Rectangle 115" width="30" height="30" transform="translate(71 13)" fill="#fff" opacity="0"/>
    <g id="Layer_4" data-name="Layer 4" transform="translate(77 19.22)">
      <path id="Path_1126" data-name="Path 1126" d="M15.968,14.772a1.032,1.032,0,0,0-1.032-1.032h-.945a4.065,4.065,0,0,1-1.636-3.252V9.869a2.323,2.323,0,0,0-.774-1.726v-.6a1.032,1.032,0,0,0-.774-1V6.256a.774.774,0,0,0-.56-.741L9.258,1.038a.258.258,0,1,0-.516,0L7.754,5.515a.774.774,0,0,0-.56.741V6.55a1.032,1.032,0,0,0-.774,1v.6a2.323,2.323,0,0,0-.774,1.726v.619A4.065,4.065,0,0,1,4.009,13.74H3.065a1.032,1.032,0,0,0-1.032,1.032A1.032,1.032,0,0,0,1,15.8v.774a.258.258,0,0,0,.258.258H16.742A.258.258,0,0,0,17,16.579V15.8A1.032,1.032,0,0,0,15.968,14.772ZM9,2.285l.71,3.2H8.29ZM7.968,6h2.065a.258.258,0,0,1,.258.258v.258H7.71V6.256A.258.258,0,0,1,7.968,6ZM6.935,7.546a.516.516,0,0,1,.516-.516h3.1a.516.516,0,0,1,.516.516V7.8a2.323,2.323,0,0,0-1.032-.258H7.968A2.323,2.323,0,0,0,6.935,7.8Zm-.774,2.942V9.869A1.806,1.806,0,0,1,7.968,8.063h2.065a1.806,1.806,0,0,1,1.806,1.806v.619A4.581,4.581,0,0,0,13.2,13.74H10.806V12.06a1.806,1.806,0,0,0-.516-1.29L9.2,9.673a.258.258,0,0,0-.366,0l-1.094,1.1a1.806,1.806,0,0,0-.529,1.29v1.68H4.8A4.581,4.581,0,0,0,6.161,10.488ZM9.516,13.74H8.484V12.21a1.032,1.032,0,0,1,.3-.73L9,11.265l.214.214a1.048,1.048,0,0,1,.3.73Zm.062-2.625-.395-.4a.258.258,0,0,0-.366,0l-.395.4a1.53,1.53,0,0,0-.454,1.094v1.53H7.71V12.06a1.29,1.29,0,0,1,.377-.9L9,10.233l.914.926a1.29,1.29,0,0,1,.377.9v1.68h-.258V12.21a1.53,1.53,0,0,0-.454-1.094ZM3.065,14.256H14.935a.516.516,0,0,1,.516.516H2.548A.516.516,0,0,1,3.065,14.256Zm13.419,2.065H1.516V15.8a.516.516,0,0,1,.516-.516H15.968a.516.516,0,0,1,.516.516Z"/>
    </g>
  </g>
</svg>
